<?xml version="1.0" standalone="no"?>
<!DOCTYPE svg PUBLIC "-//W3C//DTD SVG 20010904//EN"
 "http://www.w3.org/TR/2001/REC-SVG-20010904/DTD/svg10.dtd">
<svg version="1.0" xmlns="http://www.w3.org/2000/svg"
 width="2400.000000pt" height="3200.000000pt" viewBox="0 0 2400.000000 3200.000000"
 preserveAspectRatio="xMidYMid meet">

<g transform="translate(0.000000,3200.000000) scale(0.100000,-0.100000)"
fill="#000000" stroke="none">
<path d="M15030 31431 c-36 -4 -82 -15 -102 -24 -21 -9 -53 -17 -73 -17 -20 0
-53 -9 -75 -20 -22 -11 -48 -20 -59 -20 -17 0 -159 -61 -216 -93 -11 -6 -46
-25 -78 -41 -32 -17 -70 -38 -85 -46 -89 -50 -322 -217 -322 -231 0 -6 -4 -8
-8 -5 -10 6 -232 -187 -361 -314 -83 -82 -316 -335 -377 -410 -16 -19 -35 -42
-44 -50 -8 -8 -28 -33 -44 -55 -16 -22 -34 -44 -40 -50 -35 -32 -337 -436
-391 -525 -5 -9 -24 -34 -41 -55 -17 -22 -54 -76 -84 -120 -29 -44 -56 -82
-59 -85 -3 -3 -13 -17 -21 -32 -8 -15 -49 -79 -90 -142 -41 -64 -80 -125 -86
-136 -6 -11 -18 -28 -26 -37 -8 -10 -18 -25 -22 -33 -11 -25 -154 -263 -171
-285 -8 -10 -15 -24 -15 -30 0 -7 -9 -20 -20 -30 -11 -10 -20 -26 -20 -35 0
-9 -9 -25 -20 -35 -11 -10 -20 -24 -20 -30 0 -7 -9 -24 -20 -38 -11 -14 -20
-31 -20 -37 0 -7 -6 -18 -14 -24 -12 -10 -36 -51 -98 -166 -24 -46 -59 -106
-86 -150 -12 -19 -24 -42 -28 -50 -6 -17 -12 -27 -56 -108 -18 -31 -43 -77
-55 -102 -13 -25 -35 -63 -48 -85 -13 -22 -27 -47 -30 -55 -4 -8 -21 -42 -38
-75 -31 -58 -107 -205 -181 -350 -20 -38 -40 -77 -45 -85 -27 -46 -211 -427
-211 -438 0 -6 -4 -12 -9 -12 -5 0 -13 -10 -17 -22 -3 -13 -42 -97 -86 -188
-44 -91 -87 -181 -95 -200 -9 -19 -20 -43 -24 -52 -19 -38 -27 -56 -64 -131
-21 -43 -38 -85 -38 -93 0 -8 -4 -14 -7 -14 -4 0 -13 -15 -20 -32 -13 -34 -73
-165 -116 -253 -13 -28 -24 -54 -24 -58 0 -4 -22 -54 -50 -110 -27 -57 -50
-106 -50 -110 0 -4 -18 -47 -41 -95 -53 -115 -71 -154 -104 -232 -45 -106 -84
-193 -104 -230 -10 -19 -22 -49 -25 -67 -4 -17 -13 -37 -21 -43 -7 -6 -16 -26
-19 -44 -4 -19 -13 -39 -20 -45 -8 -7 -17 -27 -20 -45 -4 -19 -13 -39 -21 -46
-8 -7 -15 -22 -15 -33 0 -12 -15 -55 -34 -97 -18 -41 -44 -100 -56 -130 -27
-66 -67 -155 -85 -190 -7 -14 -16 -39 -19 -57 -4 -17 -14 -37 -22 -44 -8 -6
-14 -20 -14 -31 0 -10 -9 -35 -19 -56 -10 -20 -20 -40 -20 -44 -1 -4 -8 -23
-16 -42 -8 -20 -15 -40 -15 -46 0 -5 -5 -10 -12 -10 -6 0 -9 -3 -5 -6 3 -4 0
-19 -8 -34 -8 -15 -16 -39 -19 -54 -3 -14 -12 -33 -20 -42 -9 -8 -16 -22 -16
-31 0 -9 -8 -34 -19 -57 -25 -54 -52 -121 -96 -236 -44 -115 -71 -182 -96
-236 -11 -23 -19 -47 -19 -55 0 -8 -9 -29 -20 -47 -11 -18 -20 -40 -20 -50 0
-9 -9 -32 -20 -50 -11 -18 -20 -39 -20 -46 0 -7 -11 -38 -24 -67 -13 -30 -38
-92 -55 -139 -18 -47 -41 -104 -51 -128 -11 -23 -20 -53 -20 -66 0 -14 -4 -26
-10 -28 -9 -3 -30 -52 -66 -153 -8 -22 -19 -49 -24 -60 -10 -19 -57 -147 -86
-230 -8 -22 -20 -51 -28 -65 -7 -14 -16 -42 -20 -62 -4 -21 -11 -38 -16 -38
-4 0 -12 -15 -15 -32 -4 -18 -14 -46 -23 -63 -8 -16 -19 -43 -23 -60 -4 -16
-21 -61 -37 -100 -16 -38 -42 -108 -57 -155 -16 -47 -35 -94 -42 -105 -7 -11
-13 -29 -13 -40 0 -11 -7 -33 -16 -50 -9 -16 -22 -51 -30 -77 -8 -26 -19 -50
-24 -53 -6 -3 -10 -14 -10 -23 0 -14 -23 -81 -51 -147 -25 -59 -92 -245 -100
-280 -6 -22 -17 -50 -25 -62 -8 -12 -14 -29 -14 -38 0 -9 -9 -33 -19 -54 -11
-21 -22 -49 -23 -62 -2 -13 -12 -40 -23 -59 -10 -19 -19 -42 -21 -50 -1 -12
-42 -131 -71 -210 -3 -8 -7 -21 -9 -29 -1 -7 -7 -18 -13 -24 -6 -6 -11 -20
-11 -32 0 -11 -7 -33 -16 -50 -9 -16 -22 -50 -29 -75 -22 -75 -46 -144 -57
-164 -5 -10 -20 -50 -33 -90 -42 -123 -66 -190 -81 -224 -8 -17 -16 -48 -18
-68 -4 -47 -21 -63 -35 -35 -10 18 -15 19 -31 9 -16 -10 -27 -8 -65 10 -25 12
-58 22 -74 22 -16 0 -46 6 -68 14 -33 12 -44 12 -72 0 -18 -8 -46 -14 -61 -14
-15 0 -35 -9 -45 -20 -10 -11 -26 -22 -36 -25 -22 -7 -109 -122 -109 -144 0
-9 -9 -29 -20 -46 -29 -44 -29 -199 1 -256 22 -43 19 -88 -6 -109 -7 -6 -30
-14 -52 -17 -21 -3 -54 -14 -73 -25 -19 -10 -44 -18 -55 -18 -12 0 -30 -7 -41
-15 -10 -8 -29 -15 -42 -15 -12 0 -40 -9 -62 -20 -22 -11 -47 -20 -57 -20 -10
0 -31 -9 -48 -20 -16 -11 -43 -20 -60 -20 -16 0 -41 -9 -55 -20 -14 -11 -38
-20 -55 -20 -16 0 -39 -7 -49 -15 -11 -8 -30 -15 -42 -15 -12 0 -33 -9 -47
-20 -14 -11 -36 -20 -49 -20 -13 0 -40 -9 -61 -20 -20 -11 -45 -20 -54 -20
-10 0 -33 -9 -51 -20 -18 -11 -43 -20 -56 -20 -13 0 -35 -9 -49 -20 -14 -11
-36 -20 -50 -20 -13 0 -36 -9 -50 -20 -14 -11 -36 -20 -50 -20 -13 0 -30 -7
-37 -15 -7 -8 -22 -15 -34 -15 -12 0 -39 -9 -60 -19 -21 -11 -51 -23 -66 -26
-16 -3 -34 -13 -41 -21 -6 -8 -20 -14 -30 -14 -11 0 -19 -5 -19 -12 0 -6 -3
-9 -6 -5 -4 3 -19 0 -35 -8 -15 -8 -38 -15 -49 -15 -12 0 -33 -9 -47 -20 -14
-11 -35 -20 -47 -20 -11 0 -32 -9 -46 -20 -14 -11 -33 -20 -43 -20 -10 0 -35
-8 -55 -19 -37 -18 -60 -29 -157 -71 -27 -11 -67 -30 -87 -40 -20 -11 -42 -20
-48 -20 -7 0 -23 -9 -37 -20 -14 -11 -35 -20 -47 -20 -11 0 -32 -9 -46 -20
-14 -11 -31 -20 -38 -20 -11 0 -58 -22 -112 -52 -8 -4 -22 -11 -30 -14 -8 -3
-33 -14 -55 -25 -22 -10 -44 -19 -48 -19 -5 0 -20 -9 -34 -20 -14 -11 -32 -20
-40 -20 -8 0 -26 -9 -40 -20 -14 -11 -33 -20 -43 -20 -9 0 -25 -9 -35 -20 -10
-11 -28 -20 -40 -20 -13 0 -28 -7 -35 -15 -7 -8 -20 -15 -30 -15 -9 0 -25 -9
-35 -20 -10 -11 -24 -20 -31 -20 -8 0 -38 -13 -68 -30 -30 -16 -65 -35 -78
-41 -13 -7 -30 -16 -38 -21 -8 -5 -28 -15 -45 -23 -16 -8 -48 -26 -70 -40 -22
-13 -56 -31 -75 -40 -19 -9 -37 -19 -40 -23 -3 -4 -16 -13 -30 -20 -14 -6 -32
-16 -40 -21 -8 -5 -22 -12 -30 -16 -8 -3 -32 -16 -52 -28 -20 -12 -95 -55
-165 -96 -70 -41 -148 -89 -173 -107 -25 -17 -55 -35 -67 -38 -13 -4 -23 -12
-23 -17 0 -5 -11 -14 -25 -19 -14 -5 -31 -14 -38 -20 -11 -10 -85 -59 -126
-85 -9 -5 -41 -26 -73 -47 -31 -21 -61 -38 -67 -38 -7 0 -14 -7 -17 -15 -4 -8
-12 -15 -19 -15 -13 0 -65 62 -65 77 0 16 -77 90 -121 115 -32 18 -65 27 -121
31 -42 4 -87 12 -101 18 -18 8 -34 7 -71 -5 -26 -9 -64 -16 -85 -16 -22 0 -44
-6 -51 -15 -6 -8 -21 -17 -32 -21 -28 -8 -99 -58 -124 -86 -27 -29 -85 -115
-102 -148 -6 -14 -16 -32 -20 -40 -34 -61 -52 -102 -52 -119 0 -11 -9 -35 -20
-53 -11 -19 -20 -51 -20 -74 0 -23 -9 -62 -20 -86 -13 -31 -19 -61 -16 -94 4
-60 -14 -227 -26 -235 -4 -3 -9 -37 -10 -76 -1 -39 -5 -70 -8 -68 -4 2 -4 -9
-2 -26 4 -24 1 -29 -17 -29 -22 0 -518 -487 -696 -684 -50 -55 -97 -107 -105
-116 -8 -8 -49 -56 -90 -105 -41 -50 -80 -96 -87 -103 -7 -7 -34 -41 -60 -75
-26 -34 -60 -78 -77 -97 -17 -20 -40 -48 -51 -64 -11 -16 -42 -58 -70 -95 -27
-36 -63 -86 -80 -111 -16 -25 -33 -47 -36 -50 -6 -5 -89 -127 -165 -245 -52
-81 -52 -81 -109 -182 -27 -48 -54 -96 -60 -105 -43 -74 -73 -137 -68 -142 4
-3 1 -6 -5 -6 -5 0 -18 -21 -28 -47 -10 -27 -23 -55 -30 -63 -7 -8 -15 -28
-18 -43 -3 -16 -11 -36 -18 -44 -7 -8 -18 -29 -24 -47 -7 -17 -32 -83 -57
-146 -24 -63 -47 -132 -51 -152 -4 -20 -13 -50 -21 -65 -8 -15 -15 -40 -15
-54 0 -14 -8 -50 -19 -80 -45 -132 -45 -551 0 -625 10 -17 19 -38 19 -47 0
-25 66 -128 117 -182 63 -66 124 -115 198 -156 33 -18 62 -36 65 -39 3 -4 16
-10 30 -13 14 -3 59 -18 100 -32 130 -46 276 -68 455 -68 156 -1 390 22 462
44 18 6 54 12 80 13 27 2 55 6 63 9 50 18 90 29 130 37 82 16 174 42 218 61
23 11 54 19 68 19 14 0 39 8 57 17 18 9 48 20 67 24 19 4 67 19 105 34 156 58
181 66 205 72 14 4 38 15 55 25 16 10 37 18 45 18 8 0 33 9 55 19 22 11 81 36
130 57 50 20 122 51 160 69 39 17 99 44 135 60 68 30 524 249 550 265 8 5 49
27 90 49 189 98 220 117 220 127 0 6 7 11 15 11 8 0 15 -5 15 -11 0 -6 5 -4
10 4 8 13 10 12 10 -2 0 -14 9 -18 38 -18 20 0 51 -9 67 -20 25 -17 47 -20
138 -20 95 0 113 3 139 21 27 20 31 20 45 6 14 -13 16 -57 15 -316 -1 -282 0
-304 20 -347 29 -67 19 -121 -27 -151 -19 -13 -39 -23 -45 -23 -34 0 -168
-137 -184 -188 -4 -11 -13 -26 -21 -32 -8 -7 -15 -22 -15 -34 0 -11 -9 -34
-20 -51 -29 -44 -29 -218 0 -255 11 -14 20 -33 20 -43 0 -17 86 -149 102 -155
4 -2 8 -8 8 -13 0 -11 140 -149 151 -149 4 0 14 -12 24 -26 16 -25 16 -28 -19
-97 -19 -40 -38 -83 -42 -97 -4 -13 -13 -30 -20 -38 -8 -7 -14 -23 -14 -35 0
-12 -9 -35 -20 -52 -11 -16 -20 -40 -20 -53 0 -12 -9 -39 -20 -59 -11 -21 -20
-49 -20 -63 0 -14 -7 -35 -15 -48 -9 -12 -19 -45 -22 -74 -3 -29 -12 -62 -19
-73 -7 -11 -15 -53 -18 -92 -3 -40 -12 -83 -20 -95 -9 -15 -16 -62 -19 -133
-3 -70 -10 -124 -21 -147 -13 -31 -16 -75 -16 -246 0 -182 2 -215 20 -265 12
-33 20 -82 20 -120 0 -42 5 -70 17 -86 11 -17 17 -52 20 -125 3 -58 10 -110
17 -121 7 -11 16 -60 20 -109 4 -49 14 -102 22 -117 8 -16 14 -57 14 -96 0
-46 7 -82 20 -112 14 -31 20 -65 20 -120 0 -54 6 -89 20 -120 16 -33 20 -65
20 -140 0 -71 4 -104 17 -126 13 -24 18 -74 23 -265 4 -138 12 -247 18 -263
17 -41 15 -223 -3 -272 -9 -25 -14 -81 -15 -150 -1 -87 -5 -118 -20 -150 -11
-22 -19 -62 -20 -88 0 -27 -8 -64 -20 -87 -11 -22 -20 -55 -20 -74 0 -20 -9
-50 -20 -68 -11 -18 -20 -47 -20 -63 0 -17 -9 -48 -20 -70 -11 -22 -20 -53
-20 -69 0 -16 -6 -37 -14 -45 -8 -9 -17 -38 -20 -65 -3 -27 -13 -57 -21 -66
-8 -9 -15 -30 -15 -46 0 -16 -9 -42 -20 -59 -18 -27 -20 -47 -20 -181 0 -137
2 -153 20 -174 11 -13 20 -27 20 -31 0 -16 65 -105 110 -149 40 -41 148 -120
163 -120 3 0 28 -15 54 -32 52 -35 91 -58 138 -81 17 -8 45 -29 63 -46 17 -18
35 -30 39 -28 5 3 17 -1 28 -9 10 -8 14 -14 9 -14 -6 0 -16 6 -24 13 -8 6 -5
0 8 -14 13 -15 18 -29 13 -35 -11 -12 4 -280 19 -318 6 -16 13 -60 16 -100 7
-109 14 -166 24 -221 8 -45 40 -270 45 -320 1 -11 -1 -22 -6 -25 -4 -3 2 -25
13 -49 11 -24 24 -84 30 -135 6 -50 17 -108 24 -129 8 -21 17 -66 21 -100 3
-34 10 -70 15 -80 12 -23 17 -47 27 -123 5 -34 13 -70 19 -81 6 -11 16 -47 22
-79 9 -56 38 -164 75 -284 9 -30 22 -77 29 -105 7 -27 20 -67 29 -87 9 -21 17
-43 17 -50 0 -7 9 -30 20 -51 11 -20 20 -44 20 -52 0 -8 9 -32 20 -52 11 -21
20 -43 20 -50 0 -19 152 -325 170 -343 3 -3 28 -39 55 -80 75 -113 224 -258
310 -302 39 -19 85 -39 103 -43 19 -4 45 -13 60 -21 41 -21 171 -18 239 6 32
11 64 20 73 20 8 1 33 9 55 20 22 11 44 19 48 20 24 1 214 123 302 193 118 95
310 285 418 415 75 91 267 341 316 412 71 105 183 272 213 320 19 30 57 91 85
135 28 44 68 111 89 148 22 38 44 77 50 88 6 10 18 27 27 37 10 10 17 23 17
29 0 7 23 51 51 99 28 49 57 102 65 119 8 16 25 48 39 70 13 22 27 47 30 55 4
8 11 23 16 33 65 120 96 186 91 191 -3 3 0 6 6 6 7 0 12 7 12 15 0 8 7 15 16
15 8 0 13 -4 10 -9 -7 -11 8 -8 46 7 20 8 60 8 148 0 89 -7 145 -7 209 1 48 6
109 11 135 11 33 0 56 6 73 20 14 11 31 20 38 20 17 0 128 110 146 143 58 108
79 153 79 167 0 10 9 29 20 43 11 14 20 39 20 56 0 18 9 49 20 71 15 30 20 59
20 120 0 49 6 95 15 117 8 19 15 50 15 69 0 40 16 84 30 84 6 0 18 -7 26 -15
9 -8 25 -15 37 -15 12 0 37 -9 55 -20 18 -11 39 -20 47 -20 8 0 32 -9 52 -20
21 -11 47 -20 58 -20 11 0 29 -7 39 -15 11 -8 31 -15 45 -15 14 0 40 -9 56
-20 17 -11 44 -20 60 -20 17 0 44 -9 60 -20 17 -11 44 -20 60 -20 17 0 45 -9
63 -20 18 -11 49 -20 70 -20 20 0 51 -9 67 -20 17 -12 47 -20 70 -20 23 0 58
-9 80 -20 23 -12 59 -20 87 -20 27 0 59 -7 72 -15 13 -9 54 -17 97 -19 41 -2
88 -12 106 -21 22 -11 59 -16 124 -16 66 0 109 -6 148 -20 45 -15 82 -19 198
-19 130 0 143 -2 153 -19 16 -31 12 -93 -10 -126 -13 -20 -20 -47 -20 -81 0
-30 -8 -70 -20 -95 -29 -64 -29 -253 0 -309 11 -22 20 -54 20 -72 0 -21 7 -40
20 -51 11 -9 20 -26 20 -36 0 -41 96 -158 195 -238 49 -39 77 -57 143 -88 18
-9 35 -22 38 -29 3 -8 14 -12 25 -9 11 3 19 0 19 -6 0 -7 -5 -9 -12 -5 -7 5
-8 3 -3 -6 4 -7 10 -119 13 -249 2 -130 8 -244 13 -253 5 -9 11 -106 14 -215
4 -193 8 -259 25 -413 5 -41 5 -81 0 -90 -8 -15 -5 -30 10 -65 11 -24 40 -219
40 -269 0 -20 7 -53 15 -73 8 -19 18 -68 21 -107 4 -39 14 -84 22 -101 8 -16
17 -55 19 -85 3 -30 12 -66 20 -80 9 -13 18 -41 20 -61 3 -21 21 -82 40 -136
19 -54 37 -111 40 -126 3 -16 12 -31 19 -34 8 -3 14 -13 14 -23 0 -40 131
-267 191 -331 16 -17 29 -34 29 -38 0 -18 187 -161 211 -161 5 0 21 -7 34 -16
24 -16 176 -53 224 -55 38 -1 239 37 296 57 107 36 221 91 410 198 86 48 349
241 450 331 39 34 81 70 94 81 13 10 56 51 96 89 40 39 101 97 136 130 70 67
221 232 350 381 100 115 379 472 379 484 0 5 6 15 13 22 7 7 28 36 47 63 19
28 41 54 48 58 6 4 12 12 12 18 0 5 34 59 75 119 41 60 75 112 75 114 0 3 13
24 29 48 16 24 59 94 95 156 53 91 65 119 60 140 -4 15 -3 24 1 20 5 -4 14 -3
22 4 11 9 18 8 30 -5 15 -15 18 -15 43 3 22 16 53 19 210 25 134 5 191 10 207
21 12 8 32 14 43 14 21 0 93 37 138 71 36 28 102 115 102 135 0 11 8 33 18 49
11 17 21 59 24 95 3 36 13 79 22 95 11 21 16 57 16 115 0 63 6 96 20 129 12
25 20 65 20 95 0 34 7 61 20 81 11 17 20 44 20 61 0 17 7 37 15 44 8 7 18 30
21 51 4 21 13 44 20 50 8 6 14 22 14 34 0 12 9 33 19 47 11 13 23 36 26 51 4
14 13 31 21 38 8 6 14 19 14 29 0 9 9 29 20 43 11 14 20 31 20 38 0 7 7 20 15
29 8 8 28 43 46 75 17 33 53 93 80 133 27 41 49 80 49 87 0 8 9 19 20 25 11 6
20 16 20 22 0 10 44 83 60 98 3 3 36 52 75 110 38 58 92 135 120 172 27 37 66
90 85 118 57 83 82 117 143 195 31 41 57 79 57 84 0 6 6 14 13 18 6 4 26 28
42 53 17 24 36 51 43 60 25 29 118 155 147 200 17 25 33 50 38 55 4 6 21 31
38 58 17 26 34 47 39 47 4 0 27 32 51 71 24 39 57 87 73 107 25 32 56 78 91
133 10 16 83 127 107 162 7 11 21 28 31 39 9 12 17 25 17 30 0 5 16 32 35 61
19 28 35 57 35 63 0 6 9 19 20 29 11 10 20 26 20 36 0 10 6 24 14 31 7 8 28
44 46 81 18 37 36 69 40 72 5 3 11 18 15 34 3 16 13 35 21 42 8 6 14 22 14 34
0 12 9 34 20 48 11 14 20 33 20 44 0 10 9 32 20 48 11 17 20 39 20 50 0 11 9
34 20 50 11 17 20 44 20 61 0 17 9 43 20 57 11 14 20 40 20 60 0 20 7 43 16
51 8 9 19 38 23 65 4 28 13 56 19 64 6 7 12 31 13 52 1 22 10 55 20 73 11 19
19 53 19 80 0 28 8 62 20 85 13 23 20 56 20 89 0 29 7 67 16 83 8 17 19 71 23
122 5 53 14 99 22 109 9 11 15 57 19 148 3 88 10 139 20 156 11 20 15 87 18
345 l3 320 27 26 c27 26 57 44 120 74 19 9 71 54 117 101 46 46 90 84 98 84 7
0 24 -12 38 -26 70 -76 254 -194 302 -194 12 0 36 -9 52 -20 42 -28 157 -28
203 0 18 11 38 20 45 20 35 1 121 105 140 171 7 24 18 44 24 44 6 0 15 4 20 9
5 5 3 6 -4 2 -7 -4 -13 -2 -13 4 0 7 8 9 23 4 12 -3 22 -7 23 -8 17 -19 74
-109 74 -115 0 -6 6 -14 13 -18 7 -4 38 -46 70 -93 31 -47 90 -132 132 -190
41 -58 83 -116 92 -130 20 -28 112 -149 128 -166 5 -7 21 -26 35 -44 30 -39
166 -208 218 -270 108 -130 459 -475 547 -538 6 -4 42 -30 80 -58 39 -28 89
-63 113 -78 66 -42 219 -116 237 -116 9 0 30 -8 48 -17 18 -9 75 -23 127 -30
112 -16 260 -3 322 28 21 11 42 19 48 19 28 0 173 97 245 163 78 72 209 239
259 328 13 24 52 100 86 169 35 69 71 142 81 162 11 20 19 44 19 53 0 9 9 33
19 53 11 21 21 51 24 67 7 41 17 65 28 65 5 0 9 14 9 30 0 17 7 47 15 67 8 19
15 44 15 55 0 10 4 16 10 13 5 -3 7 0 5 7 -3 8 1 33 10 57 8 24 15 57 15 73 0
19 4 27 12 22 6 -4 8 -3 4 4 -3 6 -2 22 4 37 6 15 15 59 20 98 6 39 15 76 20
82 5 6 14 52 20 102 5 49 17 109 25 133 8 23 15 66 15 94 0 28 8 83 16 121 9
39 18 93 20 120 5 69 24 249 31 310 4 28 7 67 7 88 0 20 4 37 9 37 5 0 7 -6 4
-13 -3 -8 -2 -19 2 -26 4 -7 9 13 10 45 1 31 -2 61 -7 68 -5 6 -5 58 -1 116 5
58 11 236 14 395 3 160 6 295 7 300 0 6 0 15 -1 20 -1 6 6 1 14 -9 8 -11 15
-16 15 -10 0 5 76 10 184 11 156 2 190 5 218 20 87 47 152 119 178 197 6 19
15 38 20 41 4 2 7 68 7 146 0 117 -4 148 -19 177 -10 20 -18 42 -18 48 0 10
-20 52 -65 133 -38 67 -153 189 -263 276 -67 54 -133 103 -145 110 -37 19 -82
49 -89 60 -4 5 -8 21 -8 35 0 14 -9 42 -20 63 -11 20 -20 49 -20 64 0 16 -9
39 -20 53 -11 14 -20 37 -20 52 0 15 -9 42 -20 60 -11 18 -20 42 -20 53 0 11
-9 34 -20 50 -11 17 -20 40 -20 51 0 12 -7 27 -15 34 -8 7 -15 20 -15 29 0 9
-9 33 -20 54 -11 20 -20 43 -20 51 0 7 -9 25 -20 39 -11 14 -20 32 -20 40 0 8
-9 26 -20 40 -11 14 -20 32 -20 40 0 8 -9 26 -20 40 -11 14 -20 31 -20 39 0 7
-9 24 -20 38 -11 14 -20 33 -20 43 0 10 -7 20 -15 23 -8 4 -15 14 -15 24 0 11
-4 21 -9 24 -5 3 -18 25 -30 48 -33 64 -46 86 -64 106 -10 10 -17 22 -17 27 0
4 -16 32 -35 61 -19 29 -35 57 -35 62 0 5 -9 17 -20 27 -11 10 -20 22 -20 26
0 5 -18 32 -40 61 -22 29 -40 57 -40 61 0 4 -17 30 -37 57 -21 27 -63 83 -93
125 -30 42 -64 87 -75 100 -11 13 -28 34 -38 47 -80 104 -119 153 -177 218
-36 41 -73 86 -82 100 -16 27 -108 127 -249 275 -48 49 -100 105 -115 124 -16
19 -46 47 -68 62 -21 16 -35 29 -31 29 4 0 -5 10 -21 22 -16 12 -33 28 -37 36
-26 42 -450 435 -606 562 -24 19 -71 59 -104 88 -34 28 -66 52 -70 52 -5 0
-15 7 -23 15 -9 8 -12 15 -8 15 13 0 -250 207 -491 385 -99 73 -190 142 -203
154 -12 11 -27 21 -32 21 -6 0 -10 4 -10 8 0 5 -17 20 -37 33 -165 110 -230
156 -241 171 -7 10 -17 18 -22 18 -11 0 -62 34 -118 78 -22 18 -44 32 -49 32
-6 0 -18 9 -28 20 -10 11 -24 20 -32 20 -7 0 -21 8 -31 18 -16 15 -46 38 -93
67 -45 28 -107 69 -131 86 -15 10 -31 19 -36 19 -5 0 -17 9 -27 20 -10 11 -23
20 -30 20 -7 0 -20 9 -30 20 -10 11 -23 20 -30 20 -7 0 -20 9 -30 20 -10 11
-22 20 -27 20 -4 0 -31 16 -58 35 -27 19 -53 35 -57 35 -3 0 -36 20 -72 44
-90 60 -180 116 -186 116 -3 0 -27 15 -53 33 -26 18 -58 38 -72 45 -44 22 -69
38 -88 55 -10 10 -25 17 -34 17 -8 0 -23 9 -33 20 -10 11 -23 20 -30 20 -7 0
-22 9 -35 20 -13 11 -28 20 -35 20 -7 0 -20 9 -30 20 -10 11 -24 20 -31 20 -7
0 -36 16 -65 35 -30 19 -59 35 -65 35 -6 0 -19 9 -28 19 -10 10 -33 22 -52 25
-20 4 -34 13 -34 21 0 8 -6 15 -14 15 -7 0 -25 9 -39 20 -14 11 -30 20 -37 20
-22 0 -78 51 -84 77 -5 16 -1 34 9 50 28 42 31 122 6 171 -11 23 -21 48 -21
55 0 8 -7 20 -15 27 -8 7 -15 20 -15 30 0 38 -185 210 -210 195 -4 -2 -23 6
-41 18 -19 13 -49 29 -66 36 -20 8 -30 18 -26 25 5 7 2 7 -8 -1 -17 -14 -36
-5 -37 17 0 8 -3 26 -7 40 -3 14 -9 43 -12 65 -3 22 -13 56 -23 75 -9 19 -18
53 -19 75 -2 21 -11 61 -22 87 -10 27 -19 62 -19 77 0 16 -8 53 -19 83 -10 29
-24 80 -31 113 -6 33 -18 89 -27 125 -8 36 -16 73 -18 83 -2 10 -7 27 -10 37
-3 10 -1 21 5 25 16 10 12 25 -5 19 -10 -4 -15 0 -15 14 0 12 -7 47 -15 79 -8
31 -15 72 -15 91 0 18 -7 46 -15 63 -9 16 -18 60 -22 97 -3 37 -9 72 -13 77
-10 14 -30 109 -30 148 -1 18 -8 50 -16 72 -16 43 -19 60 -29 149 -3 33 -10
64 -14 70 -5 6 -12 43 -15 81 -4 39 -13 101 -20 140 -8 42 -10 78 -5 92 6 17
5 21 -6 16 -11 -3 -15 2 -14 18 0 13 -2 35 -5 49 -13 55 -26 148 -26 191 0 25
-5 50 -11 56 -12 12 -15 30 -25 158 -3 44 -11 96 -17 115 -15 48 -15 49 -26
186 -6 67 -16 134 -22 150 -6 16 -13 58 -15 94 -7 128 -16 205 -26 224 -6 10
-12 62 -14 115 -2 53 -10 152 -18 221 -8 68 -11 129 -7 135 12 14 12 87 1 80
-5 -3 -7 -12 -4 -19 3 -8 1 -16 -4 -20 -5 -3 -9 0 -9 7 -2 38 -14 185 -22 267
-6 52 -11 136 -12 185 0 50 -5 108 -9 130 -15 73 -22 158 -30 360 -4 110 -10
211 -13 225 -15 65 -20 170 -33 655 -3 126 -10 237 -15 246 -10 20 -16 238
-25 924 -7 544 -8 593 -19 645 -11 49 -11 1061 0 1085 12 28 12 38 3 57 -8 16
-10 127 -23 973 -4 208 -8 382 -10 385 -6 10 -5 244 1 278 5 24 3 32 -7 30 -9
-2 -13 14 -15 62 -2 68 -7 143 -23 375 -6 77 -10 147 -10 155 0 8 -5 42 -10
75 -17 92 -19 113 -26 210 -3 50 -13 113 -20 140 -8 28 -19 89 -24 137 -6 48
-16 100 -24 115 -7 15 -14 46 -16 68 -2 36 -13 84 -56 229 -8 27 -11 54 -8 59
3 6 2 7 -3 4 -6 -3 -18 22 -28 56 -10 34 -26 80 -36 102 -10 22 -24 55 -30 73
-7 17 -16 32 -21 32 -5 0 -9 11 -9 24 0 13 -7 29 -15 36 -8 6 -17 22 -21 33
-7 24 -121 191 -152 222 -80 82 -230 195 -260 195 -8 0 -25 9 -39 20 -14 11
-34 20 -45 20 -10 0 -40 9 -65 21 -40 18 -69 21 -232 24 -102 2 -215 0 -251
-4z m360 -103 c8 -2 20 -7 26 -11 6 -3 25 -8 43 -9 17 -1 31 -6 31 -10 0 -4
11 -8 25 -8 14 0 25 -4 25 -10 0 -5 13 -10 29 -10 61 0 191 -88 280 -190 62
-71 91 -112 132 -188 16 -30 33 -60 38 -66 4 -6 18 -42 30 -80 13 -38 29 -79
37 -90 8 -11 14 -36 14 -54 0 -19 9 -45 20 -59 11 -14 20 -37 20 -50 0 -13 6
-36 14 -51 7 -15 16 -54 20 -86 4 -33 12 -66 18 -73 6 -8 13 -33 15 -56 6 -79
14 -132 23 -152 5 -11 11 -42 14 -70 3 -27 11 -79 17 -115 6 -36 13 -90 14
-120 2 -30 6 -66 9 -80 4 -14 9 -61 12 -105 9 -131 11 -141 18 -153 4 -7 7
-31 6 -54 -2 -132 14 -465 23 -476 15 -19 18 -164 4 -181 -9 -12 -9 -13 1 -7
9 6 12 -21 11 -126 -1 -73 2 -167 5 -208 3 -41 6 -255 7 -475 0 -293 3 -403
12 -414 10 -12 9 -13 -3 -6 -13 7 -13 6 -2 -7 9 -11 10 -18 2 -23 -14 -9 -13
-65 2 -65 9 0 9 -3 0 -12 -13 -13 -17 -92 -4 -84 5 3 9 -13 9 -35 0 -21 -3
-39 -8 -39 -13 0 -11 -58 2 -66 8 -4 8 -9 0 -17 -14 -14 -15 -70 -1 -62 5 3 7
0 4 -8 -3 -8 -1 -18 4 -21 6 -3 7 -20 2 -41 -4 -19 -4 -35 1 -35 4 0 6 -6 4
-12 -11 -28 -11 -148 -1 -148 6 0 5 -4 -3 -9 -9 -6 -10 -11 -2 -15 8 -5 8 -13
1 -27 -8 -13 -7 -19 0 -19 6 0 8 -5 5 -10 -8 -13 -10 -138 -3 -146 3 -3 2 -21
-2 -40 -5 -23 -4 -34 3 -34 8 0 7 -4 -1 -12 -6 -6 -8 -18 -3 -27 11 -22 12
-447 1 -477 -6 -15 -6 -24 0 -24 5 0 9 -38 7 -87 -1 -49 2 -191 7 -318 4 -126
9 -323 10 -437 1 -114 4 -210 8 -214 4 -3 3 -15 -2 -24 -7 -13 -5 -21 5 -30
10 -8 12 -18 6 -29 -5 -9 -6 -22 -4 -28 3 -7 -1 -13 -8 -13 -9 0 -8 -5 2 -17
8 -10 13 -34 12 -53 -3 -43 -3 -54 -3 -157 0 -45 4 -121 10 -170 5 -48 10
-141 11 -205 1 -79 5 -118 12 -118 7 0 7 -4 -1 -12 -15 -15 -16 -45 -1 -50 7
-2 7 -12 0 -30 -5 -14 -7 -29 -3 -33 4 -3 7 -28 8 -56 0 -27 4 -52 7 -56 4 -3
7 -16 7 -29 0 -12 6 -25 13 -27 9 -4 9 -7 -1 -15 -19 -13 -19 -36 2 -349 1
-18 5 -36 9 -39 4 -4 2 -13 -4 -21 -9 -10 -8 -13 0 -13 7 0 10 -3 8 -7 -4 -8
6 -196 19 -348 3 -38 6 -84 8 -100 1 -17 5 -36 9 -42 4 -6 7 -44 7 -85 1 -40
5 -118 11 -173 5 -55 11 -113 12 -130 2 -16 6 -36 10 -42 5 -7 8 -37 8 -65 -1
-92 11 -243 20 -253 4 -6 8 -20 9 -30 0 -11 2 -42 5 -70 3 -27 8 -83 11 -122
4 -40 9 -73 13 -73 4 0 7 -8 8 -17 6 -97 12 -153 17 -178 4 -16 8 -50 10 -75
1 -25 5 -51 10 -58 4 -7 2 -12 -6 -12 -9 0 -9 -3 -2 -8 6 -4 12 -27 12 -50 1
-24 4 -48 7 -52 6 -10 20 -95 35 -215 5 -38 14 -97 20 -130 6 -33 17 -107 25
-165 8 -58 17 -116 20 -130 16 -79 24 -130 24 -172 1 -26 6 -50 11 -53 6 -3
10 -24 10 -46 0 -22 5 -50 11 -62 7 -12 12 -35 11 -51 0 -17 4 -36 9 -42 5 -6
10 -32 11 -58 1 -25 5 -46 9 -46 6 0 9 -21 9 -67 0 -17 4 -34 10 -38 5 -3 10
-23 10 -44 0 -20 4 -41 9 -47 6 -5 11 -32 13 -61 2 -28 6 -49 10 -46 5 2 8
-10 8 -27 0 -37 17 -118 31 -142 5 -10 9 -31 9 -46 0 -46 22 -142 32 -142 6 0
8 -15 6 -34 -2 -19 0 -32 4 -30 4 3 8 -13 8 -36 0 -22 7 -52 16 -65 9 -14 14
-34 11 -45 -3 -11 -1 -23 4 -26 5 -3 9 -25 9 -50 0 -24 5 -44 10 -44 6 0 10
-13 10 -28 0 -16 3 -32 7 -36 4 -3 8 -14 9 -24 2 -9 7 -33 13 -52 5 -19 15
-62 22 -95 7 -33 16 -64 20 -70 4 -5 10 -28 14 -50 4 -22 16 -62 27 -88 10
-27 15 -53 12 -59 -4 -5 3 -22 14 -38 l21 -27 -25 -12 c-14 -6 -37 -11 -52
-11 -15 0 -36 -6 -47 -14 -11 -7 -44 -16 -74 -19 -29 -4 -64 -13 -77 -22 -13
-8 -34 -15 -46 -15 -13 0 -40 -9 -61 -20 -20 -11 -47 -20 -59 -20 -13 0 -36
-9 -53 -20 -16 -11 -38 -20 -48 -20 -9 0 -34 -9 -54 -20 -21 -11 -47 -20 -59
-20 -12 0 -27 -7 -34 -15 -7 -8 -30 -18 -51 -21 -21 -4 -44 -13 -50 -20 -6 -8
-19 -14 -28 -14 -9 0 -33 -8 -54 -19 -20 -10 -52 -22 -71 -25 -19 -4 -39 -13
-46 -21 -7 -8 -22 -15 -34 -15 -12 0 -38 -9 -59 -20 -20 -11 -44 -20 -52 -20
-8 0 -32 -9 -52 -20 -21 -11 -45 -20 -53 -20 -9 0 -24 -6 -35 -14 -11 -7 -36
-17 -55 -21 -19 -4 -45 -13 -57 -21 -12 -7 -40 -16 -62 -20 -22 -4 -46 -13
-52 -20 -6 -8 -23 -14 -38 -14 -14 0 -43 -9 -64 -20 -20 -11 -48 -20 -62 -20
-14 0 -43 -9 -65 -20 -22 -11 -51 -20 -65 -20 -14 0 -42 -9 -62 -20 -21 -11
-53 -20 -71 -20 -18 0 -43 -7 -56 -15 -12 -8 -45 -18 -72 -21 -27 -4 -58 -12
-69 -19 -11 -7 -47 -15 -79 -20 -33 -4 -69 -13 -80 -20 -12 -7 -49 -15 -84
-19 -34 -3 -72 -12 -85 -20 -12 -7 -53 -16 -92 -19 -38 -2 -83 -12 -100 -21
-19 -10 -55 -16 -100 -16 -45 0 -81 -6 -100 -16 -19 -10 -71 -19 -142 -23 -62
-4 -118 -12 -126 -19 -9 -8 -69 -14 -158 -18 -96 -4 -159 -11 -189 -22 -40
-15 -122 -17 -795 -17 -679 0 -754 2 -795 17 -30 11 -92 19 -184 23 -77 3
-149 11 -160 17 -12 7 -68 15 -126 19 -58 4 -122 14 -142 23 -21 9 -61 16 -91
16 -29 0 -78 9 -110 20 -31 11 -77 20 -102 20 -25 0 -59 7 -75 15 -15 8 -55
18 -87 21 -32 4 -67 13 -78 20 -11 6 -45 15 -75 19 -30 4 -64 13 -75 19 -11 7
-42 16 -68 19 -27 4 -58 14 -70 22 -12 8 -35 15 -52 15 -16 1 -48 9 -70 20
-22 11 -50 19 -63 20 -12 0 -39 9 -59 20 -21 11 -48 20 -60 20 -13 0 -40 9
-60 20 -21 11 -47 20 -58 20 -11 0 -29 6 -40 14 -11 7 -36 17 -55 21 -19 4
-42 13 -50 20 -8 7 -31 15 -51 19 -21 4 -42 13 -49 21 -7 8 -22 15 -34 15 -11
0 -36 9 -54 20 -18 11 -39 20 -48 20 -8 0 -32 9 -52 19 -39 21 -117 56 -142
65 -8 3 -22 10 -30 15 -8 5 -76 39 -150 76 -74 36 -171 86 -215 110 -44 24
-99 53 -122 65 -23 12 -57 31 -75 43 -18 12 -44 28 -58 35 -14 7 -34 18 -45
25 -11 7 -60 36 -110 66 -49 30 -115 70 -145 90 -30 20 -63 41 -72 46 -9 6
-49 30 -88 55 -39 25 -79 50 -88 55 -9 6 -48 31 -87 56 -81 53 -180 115 -232
145 -19 11 -41 30 -47 43 -7 12 -16 18 -21 14 -6 -4 -3 1 6 12 33 42 62 98 65
126 2 17 9 40 16 52 6 12 12 34 13 48 2 15 13 40 25 57 12 16 20 36 18 44 -3
7 5 31 17 53 13 22 26 56 30 75 4 19 11 44 15 55 4 11 7 22 7 25 0 3 12 27 26
55 15 27 27 59 27 69 0 27 22 86 32 86 4 0 8 11 8 24 0 13 7 37 15 52 8 16 15
37 15 46 0 23 21 68 32 68 5 0 8 6 7 13 -1 6 1 21 5 32 4 11 13 34 19 50 7 17
11 33 9 38 -1 4 9 30 23 58 14 27 23 54 20 58 -3 5 7 33 21 63 15 29 33 66 40
81 8 16 12 33 9 37 -3 5 6 34 20 66 14 31 25 64 25 73 0 9 6 25 13 36 7 11 19
39 27 63 7 23 19 47 26 53 7 6 11 16 8 24 -3 7 4 32 15 56 12 23 21 51 21 61
0 9 9 35 21 57 11 22 22 52 23 66 2 14 11 33 19 43 9 10 18 27 20 38 1 10 5
24 9 29 3 6 13 36 22 68 9 32 23 60 31 64 10 3 13 13 9 28 -3 13 -1 26 5 29 6
4 11 14 11 22 0 9 7 22 15 31 8 8 12 19 9 25 -6 9 1 29 27 80 5 10 9 25 9 34
0 9 10 29 21 46 12 17 22 43 21 59 0 16 7 34 16 41 9 7 18 20 19 28 3 28 13
65 21 85 5 11 19 47 31 80 12 33 31 79 43 102 11 24 21 51 22 60 2 16 21 62
62 147 8 16 14 34 14 41 0 6 12 35 26 64 15 29 28 60 29 70 1 9 5 25 9 36 22
58 40 95 45 95 3 0 7 17 8 38 1 24 9 43 23 54 11 9 19 20 18 25 -5 15 25 103
34 103 6 0 8 6 5 14 -3 7 5 34 18 60 13 25 20 46 17 46 -4 0 -2 4 3 8 6 4 19
34 29 67 10 33 25 69 32 80 8 11 14 27 14 36 0 9 9 24 19 33 11 10 17 24 15
31 -3 7 -1 16 5 19 6 4 8 12 5 19 -2 7 5 23 16 35 12 12 19 26 16 30 -2 4 4
25 15 46 10 22 19 48 19 59 0 11 10 36 23 56 12 20 23 43 23 51 1 8 8 32 17
53 9 20 16 38 15 40 0 1 9 22 22 46 12 24 22 59 23 78 1 18 4 33 8 33 4 0 18
18 30 40 13 22 26 40 29 40 4 0 5 11 3 24 -3 16 3 36 16 55 12 16 21 36 21 45
0 9 9 33 20 53 11 21 20 44 20 51 0 8 7 26 15 40 8 15 21 44 29 65 9 21 19 36
23 34 5 -3 9 11 10 30 1 19 9 43 17 52 9 10 16 25 16 33 0 13 50 122 106 231
7 16 14 36 14 46 0 9 9 34 20 56 11 22 20 45 20 52 0 6 8 18 18 25 9 7 18 24
19 38 2 22 13 47 59 143 8 16 14 33 14 39 0 17 43 98 52 98 4 0 8 11 8 24 0
13 7 29 15 36 9 7 14 19 11 25 -2 7 1 21 8 31 7 11 19 37 26 59 7 22 16 44 21
50 5 5 9 17 9 26 0 10 12 27 26 38 14 11 24 26 23 33 -1 7 6 31 15 53 9 22 26
63 38 90 11 28 29 68 39 91 11 23 19 45 19 49 0 5 10 19 22 32 12 12 22 31 23
40 3 33 16 63 26 58 5 -3 6 1 3 9 -3 9 -1 16 5 16 6 0 11 7 11 15 0 27 49 127
60 120 5 -3 7 0 5 8 -7 18 29 99 40 89 5 -4 5 -1 1 6 -7 12 13 65 46 122 4 8
13 26 19 40 6 14 15 32 20 40 5 8 14 26 19 40 14 35 41 92 52 110 4 8 13 26
19 40 30 68 43 89 52 83 6 -3 7 -1 3 5 -9 14 25 83 37 75 6 -3 7 -1 3 6 -6 9
37 113 84 201 34 64 105 205 105 210 0 13 32 49 38 43 4 -3 7 4 7 16 0 23 42
112 155 326 189 359 213 404 236 437 11 14 19 33 19 41 0 9 4 18 9 22 5 3 24
34 41 70 17 36 36 67 41 70 5 4 9 17 9 30 0 14 16 41 39 65 22 23 42 53 46 67
3 14 14 37 23 52 25 37 40 62 57 96 8 17 23 42 32 57 10 14 36 56 58 93 22 37
49 82 60 101 11 18 37 61 58 96 51 84 57 95 93 148 16 25 44 70 62 100 17 30
45 70 61 88 17 18 31 39 31 45 0 7 18 38 40 70 22 31 40 61 40 65 0 4 16 24
35 45 19 21 35 43 35 48 0 6 9 23 21 37 31 41 165 230 205 290 20 29 42 56 50
59 8 3 14 10 14 15 0 10 76 114 155 211 28 34 81 100 119 147 38 47 76 92 85
101 9 9 31 33 49 53 18 20 37 34 42 31 6 -4 10 3 10 14 0 12 9 26 20 33 11 7
20 17 20 22 0 12 333 346 345 346 6 0 16 9 23 20 7 11 17 20 22 20 6 0 24 15
41 34 16 19 53 50 82 69 29 19 61 45 72 57 11 12 40 36 65 53 104 71 159 107
164 107 3 0 24 13 48 29 68 46 204 111 231 111 13 0 30 7 37 15 7 8 20 15 30
15 9 0 20 3 24 8 4 4 11 7 14 7 4 1 18 7 32 15 14 7 44 17 68 22 23 4 61 12
85 18 59 13 146 29 186 34 18 3 34 6 36 8 4 4 235 0 255 -4z m-8060 -15202
c30 -9 90 -16 133 -16 49 0 88 -5 107 -15 17 -9 74 -17 141 -21 62 -4 124 -13
138 -21 15 -7 45 -13 68 -13 24 0 63 -5 88 -12 35 -9 47 -18 54 -41 6 -15 46
-67 89 -115 43 -48 88 -100 100 -116 24 -32 29 -85 10 -119 -7 -12 -15 -73
-18 -134 -9 -158 -20 -168 -145 -134 -22 6 -74 11 -115 11 -51 0 -96 8 -140
23 l-65 23 -5 82 c-4 59 -9 86 -20 92 -8 5 -46 10 -83 10 -38 0 -84 7 -105 16
-20 8 -82 18 -138 21 -94 5 -103 4 -123 -16 -18 -18 -21 -32 -21 -105 0 -56
-7 -104 -20 -146 -13 -42 -20 -90 -20 -147 0 -54 -6 -97 -16 -121 -9 -22 -18
-80 -21 -142 -3 -58 -12 -117 -19 -132 -7 -14 -17 -77 -20 -140 -4 -62 -12
-124 -19 -138 -7 -14 -16 -74 -20 -135 -4 -60 -13 -122 -21 -137 -18 -36 -18
-132 0 -151 9 -9 47 -16 103 -20 48 -3 105 -13 125 -21 25 -11 69 -16 132 -16
111 0 116 4 116 92 0 30 6 62 13 72 14 20 18 19 117 -3 25 -6 77 -10 117 -11
40 0 87 -6 105 -14 18 -8 49 -18 69 -21 28 -4 38 -11 43 -29 8 -34 -4 -146
-20 -178 -8 -15 -14 -57 -14 -93 0 -37 -4 -75 -10 -85 -9 -16 -93 -80 -106
-80 -2 0 -26 -15 -52 -33 -166 -116 -211 -133 -270 -103 -15 7 -77 16 -139 19
-71 4 -121 12 -135 21 -14 9 -63 16 -128 19 -58 3 -123 12 -145 21 -22 8 -67
15 -100 16 -70 0 -68 -1 -227 181 -107 124 -116 140 -98 182 7 18 16 84 20
147 5 68 14 130 24 152 11 25 16 66 16 123 0 57 5 98 16 123 10 22 18 77 21
137 2 55 11 118 19 139 9 22 18 87 21 145 3 58 11 117 18 131 7 14 16 77 20
140 4 63 13 126 20 140 7 14 15 73 18 132 3 59 11 117 18 130 7 13 16 68 19
122 6 99 6 99 43 131 20 18 37 36 37 40 0 13 34 34 55 35 11 0 63 29 115 65
105 72 116 74 230 41z m1327 -186 c41 -14 83 -20 146 -20 62 0 97 -5 120 -16
21 -11 67 -18 142 -22 62 -2 121 -10 137 -18 14 -7 77 -17 140 -20 62 -4 122
-13 133 -19 11 -7 60 -15 109 -18 112 -6 118 -12 110 -111 -4 -39 -11 -80 -17
-91 -6 -11 -14 -68 -17 -127 -4 -63 -12 -114 -20 -123 -17 -20 -119 -20 -168
1 -22 9 -79 18 -137 20 -55 3 -120 12 -144 21 -29 11 -81 16 -150 17 l-105 1
-23 -34 c-20 -29 -23 -46 -23 -128 0 -63 -5 -106 -16 -131 -9 -20 -18 -73 -21
-117 -7 -110 -3 -114 117 -122 52 -3 106 -11 120 -18 14 -7 74 -15 134 -19 60
-4 117 -11 128 -17 10 -6 38 -13 61 -17 40 -7 42 -9 45 -47 2 -21 -3 -55 -12
-74 -8 -20 -17 -83 -20 -143 -4 -82 -11 -116 -27 -148 -27 -51 -35 -55 -82
-35 -23 9 -67 15 -120 15 -57 0 -100 6 -140 20 -66 23 -254 29 -275 8 -7 -7
-12 -29 -12 -50 0 -22 -6 -51 -14 -66 -7 -15 -16 -77 -19 -138 -4 -69 -12
-121 -22 -140 -18 -35 -19 -55 -3 -89 13 -29 22 -32 137 -40 46 -3 93 -11 105
-17 11 -7 73 -15 136 -19 68 -4 130 -14 152 -23 22 -9 65 -16 102 -16 56 0 67
-3 77 -21 12 -24 3 -132 -14 -164 -7 -11 -14 -70 -17 -132 -4 -70 -11 -117
-19 -127 -17 -20 -115 -22 -162 -2 -19 7 -83 16 -142 20 -65 3 -119 12 -137
21 -19 10 -58 15 -113 15 -57 0 -105 7 -147 20 -41 13 -90 20 -141 20 -46 0
-98 7 -126 16 -26 9 -84 20 -128 23 l-80 6 2 132 c2 90 7 142 16 160 8 16 17
75 20 140 4 72 11 122 21 142 11 20 16 57 16 116 0 60 6 103 20 142 14 40 20
83 20 144 0 57 5 100 16 125 10 23 19 86 23 149 4 61 13 120 19 132 6 12 14
68 18 125 3 56 12 119 19 138 7 19 16 85 20 145 4 61 13 121 20 135 7 14 15
75 18 135 3 71 11 121 21 140 11 21 16 58 16 123 0 104 15 132 70 132 17 0 56
-9 87 -20z m1369 -195 c19 -10 58 -15 115 -15 64 0 106 -6 160 -24 l74 -24 3
-53 c2 -32 -3 -68 -12 -89 -8 -19 -17 -79 -19 -135 -3 -61 -11 -115 -21 -137
-10 -25 -16 -66 -16 -121 0 -57 -7 -105 -20 -147 -13 -40 -20 -90 -20 -140 0
-45 -7 -96 -16 -121 -8 -24 -18 -91 -21 -149 -3 -58 -12 -116 -19 -130 -7 -14
-15 -75 -19 -135 -4 -61 -13 -123 -20 -140 -7 -16 -15 -78 -19 -137 -4 -59
-13 -123 -21 -142 -16 -39 -21 -191 -6 -200 5 -3 42 -8 82 -12 41 -3 90 -12
109 -19 19 -7 80 -16 135 -19 56 -3 116 -12 137 -20 21 -9 64 -16 96 -16 32 0
63 -5 70 -12 19 -19 14 -128 -8 -198 -13 -41 -20 -90 -20 -141 0 -101 -15
-120 -87 -113 -26 3 -65 11 -86 19 -21 9 -71 15 -117 15 -55 0 -99 6 -137 20
-40 14 -83 20 -144 20 -57 0 -100 6 -125 16 -23 10 -79 18 -139 21 -55 2 -116
10 -135 18 -19 7 -66 17 -105 22 l-70 8 -3 39 c-2 22 3 56 12 75 8 20 17 82
20 138 3 57 11 113 18 125 6 13 15 75 19 138 4 76 12 127 23 147 11 22 16 59
16 120 1 54 7 104 16 128 9 22 18 85 20 140 3 55 12 118 21 140 8 22 18 91 22
155 4 63 12 124 19 136 6 12 14 70 18 130 4 60 12 120 19 134 7 14 15 74 19
133 3 59 11 118 18 130 6 12 15 74 19 139 5 73 13 128 23 147 9 16 16 52 16
79 0 26 5 53 12 60 16 16 60 15 94 -3z m-7806 -168 c0 -16 5 -38 11 -49 7 -12
15 -94 20 -182 5 -102 13 -176 23 -201 8 -22 15 -69 16 -105 0 -38 6 -77 16
-95 8 -16 18 -59 21 -95 3 -36 12 -74 19 -85 7 -11 16 -45 20 -75 4 -30 13
-64 19 -75 7 -11 16 -40 19 -64 4 -24 13 -53 21 -64 8 -12 15 -32 15 -45 0
-12 9 -40 20 -62 11 -22 20 -45 20 -51 0 -13 14 -45 85 -189 114 -233 246
-412 464 -631 211 -210 396 -359 731 -584 96 -64 176 -118 176 -119 1 0 5 -11
9 -24 6 -22 4 -23 -24 -19 -17 3 -29 2 -26 -3 5 -9 -100 -70 -120 -70 -7 0
-24 -9 -39 -21 -14 -11 -26 -17 -26 -14 0 4 -15 -4 -34 -19 -19 -14 -39 -26
-45 -26 -10 0 -79 -31 -111 -51 -48 -28 -114 -59 -126 -59 -17 0 -56 -21 -66
-35 -4 -5 -8 -6 -8 -2 0 5 -15 -1 -33 -12 -19 -11 -38 -17 -42 -13 -5 4 -6 2
-2 -3 3 -6 -17 -21 -46 -34 -78 -34 -222 -99 -250 -113 -40 -19 -223 -90 -247
-94 -14 -3 -32 -12 -41 -20 -8 -8 -23 -14 -32 -14 -9 0 -36 -9 -59 -19 -60
-27 -165 -68 -213 -82 -22 -6 -50 -16 -62 -22 -11 -5 -26 -6 -32 -3 -6 4 -11
2 -11 -4 0 -12 -36 -27 -83 -34 -54 -9 -92 -19 -97 -26 -3 -5 -21 -9 -40 -11
-19 -2 -37 -7 -40 -11 -3 -4 -19 -9 -35 -12 -63 -11 -90 -19 -100 -26 -12 -8
-89 -22 -123 -21 -13 1 -33 -6 -45 -14 -14 -9 -62 -17 -124 -21 -64 -4 -104
-11 -107 -19 -7 -18 -324 -26 -496 -12 -47 4 -93 8 -102 8 -10 0 -18 5 -18 11
0 6 -2 9 -5 6 -11 -11 -146 25 -225 60 -19 8 -40 16 -45 18 -20 4 -115 66
-115 75 0 5 -6 9 -14 9 -17 0 -126 116 -126 135 0 7 -7 15 -15 19 -8 3 -15 12
-15 21 0 9 -6 26 -14 38 -7 12 -14 42 -15 67 -1 24 -6 49 -11 55 -12 15 -12
343 1 350 5 4 7 10 4 15 -3 4 0 32 6 61 6 30 11 65 10 78 -1 13 4 30 10 37 6
8 8 14 3 14 -5 0 -4 4 2 8 6 4 14 32 18 62 4 30 13 64 20 76 8 11 17 38 20 59
4 22 13 46 21 55 8 9 15 27 15 41 1 13 9 42 20 64 11 22 19 47 20 56 0 8 9 25
21 37 11 12 17 27 14 32 -4 6 5 24 19 40 14 17 23 36 20 43 -2 7 5 22 16 34
11 12 21 30 23 40 2 10 8 28 15 40 7 12 12 28 12 36 0 8 9 22 20 32 11 10 20
26 20 36 0 10 5 21 11 25 6 3 17 21 25 38 8 17 23 45 34 61 23 36 50 81 91
155 17 30 39 64 50 76 10 11 19 23 19 27 0 6 31 52 101 147 22 30 52 73 67 95
47 70 288 383 312 405 3 3 28 32 55 64 91 109 137 156 148 149 6 -3 7 -1 3 6
-4 6 11 31 37 59 24 26 72 79 108 117 125 137 224 235 238 235 8 0 11 3 8 6
-4 4 62 75 145 158 l151 151 13 -30 c7 -16 13 -43 14 -58z m8791 34 c31 -1 72
-7 90 -15 19 -7 83 -17 144 -21 60 -3 121 -12 135 -19 14 -7 75 -16 137 -19
72 -4 122 -11 142 -21 20 -11 57 -16 114 -16 53 0 105 -7 138 -17 39 -13 54
-14 57 -5 5 17 42 15 48 -3 4 -11 21 -15 58 -15 29 0 57 -5 64 -12 18 -18 16
-197 -3 -242 -9 -21 -18 -73 -22 -117 -6 -83 -19 -104 -61 -97 -9 1 -22 0 -27
-4 -11 -7 -101 14 -133 31 -22 12 -213 18 -230 7 -7 -4 -12 -21 -12 -37 0 -17
-7 -43 -15 -59 -9 -17 -17 -71 -21 -132 -3 -57 -12 -121 -19 -143 -7 -22 -17
-87 -20 -145 -4 -58 -13 -116 -20 -130 -7 -14 -15 -76 -18 -138 -4 -70 -12
-123 -22 -142 -10 -19 -15 -57 -15 -113 0 -57 -7 -105 -20 -147 -13 -42 -20
-90 -20 -147 0 -55 -6 -96 -16 -121 -10 -22 -18 -77 -21 -137 -2 -55 -11 -116
-18 -136 -8 -20 -17 -75 -21 -123 -6 -79 -9 -88 -30 -96 -28 -11 -224 4 -252
19 -11 6 -45 11 -76 11 -30 0 -66 4 -80 10 -25 9 -26 12 -26 99 0 56 5 102 15
125 8 20 18 84 21 143 4 60 12 119 19 133 7 14 16 76 20 138 4 62 13 125 20
140 7 15 15 76 19 135 3 59 11 118 18 130 6 12 15 74 19 137 4 68 14 130 23
152 10 24 16 67 16 120 0 55 7 105 20 146 13 41 20 92 20 142 0 47 6 92 16
115 8 20 14 57 12 82 l-3 46 -79 23 c-56 17 -105 24 -162 24 -61 0 -94 5 -130
21 -71 31 -75 36 -62 67 6 15 17 83 24 152 11 114 28 198 46 226 4 7 30 8 75
3 37 -5 93 -8 124 -8z m1453 -206 c20 -8 84 -18 143 -21 60 -4 120 -13 135
-20 15 -8 38 -14 51 -14 12 0 28 -5 35 -12 17 -17 15 -83 -4 -119 -10 -20 -17
-70 -21 -142 -3 -62 -10 -117 -14 -123 -11 -14 -28 -141 -29 -210 0 -28 -6
-64 -14 -80 -7 -16 -16 -78 -20 -137 -3 -59 -12 -120 -20 -135 -8 -16 -15 -73
-18 -137 -4 -75 -11 -121 -22 -142 -11 -22 -16 -58 -16 -116 0 -57 -7 -105
-20 -147 -13 -42 -20 -90 -20 -145 0 -52 -6 -96 -16 -120 -8 -20 -19 -87 -23
-149 -4 -61 -12 -120 -18 -131 -6 -11 -14 -63 -18 -115 -4 -52 -13 -114 -21
-138 -8 -23 -14 -57 -14 -75 0 -18 -6 -39 -13 -47 -14 -17 -102 -26 -120 -13
-7 5 -30 10 -52 12 -22 1 -78 11 -124 21 -46 10 -89 16 -96 13 -8 -2 -23 0
-34 7 -26 13 -28 74 -6 135 8 23 14 78 15 128 0 57 6 101 16 125 9 21 18 79
21 137 2 55 11 117 18 137 8 20 17 85 21 145 4 59 12 119 19 133 7 14 15 76
19 139 4 63 13 126 20 140 7 14 16 74 19 132 2 58 11 117 18 130 7 13 16 77
20 142 4 72 12 123 20 133 8 9 15 60 19 132 3 64 12 127 19 140 7 13 16 76 20
140 4 64 13 127 19 139 7 12 12 39 12 60 0 41 22 83 44 83 8 0 30 -7 50 -15z
m1086 -155 c41 -13 91 -20 144 -20 47 -1 98 -7 121 -16 22 -9 85 -18 140 -21
64 -3 121 -12 158 -26 61 -21 70 -29 236 -222 l61 -70 -1 -90 c0 -59 -5 -99
-14 -115 -8 -14 -14 -52 -15 -87 0 -90 -7 -94 -138 -86 -59 3 -119 12 -134 19
-15 8 -58 14 -97 14 -93 0 -102 10 -100 105 1 40 -1 78 -5 84 -4 6 -20 11 -35
11 -16 0 -44 6 -62 14 -19 7 -83 17 -144 21 -62 4 -122 13 -138 22 -36 18 -66
8 -72 -25 -3 -15 -11 -40 -17 -57 -6 -16 -15 -82 -19 -145 -5 -64 -15 -128
-24 -146 -10 -21 -15 -62 -15 -118 0 -61 -6 -103 -20 -143 -14 -39 -20 -83
-20 -138 0 -52 -7 -102 -20 -143 -13 -43 -20 -92 -20 -148 0 -56 -5 -95 -15
-114 -9 -17 -17 -71 -21 -132 -3 -57 -12 -120 -20 -141 -8 -20 -14 -40 -14
-43 0 -3 24 -16 53 -29 39 -18 78 -25 162 -31 61 -3 122 -13 137 -20 33 -17
110 -18 126 -2 7 7 12 34 12 60 0 53 20 102 45 112 28 11 88 6 130 -11 22 -8
90 -18 152 -22 71 -4 117 -11 125 -19 19 -19 13 -254 -7 -293 -8 -15 -15 -43
-15 -62 0 -24 -8 -40 -27 -58 -37 -33 -90 -69 -101 -69 -5 0 -17 -9 -27 -20
-10 -11 -22 -20 -27 -20 -5 0 -35 -18 -67 -39 -54 -37 -120 -55 -137 -38 -4 4
-35 7 -68 7 -34 0 -93 7 -131 16 -39 8 -110 19 -160 24 -49 5 -117 13 -150 19
-33 5 -82 12 -110 15 -144 13 -189 31 -210 79 -8 18 -50 73 -94 122 l-81 90 0
110 c0 82 5 126 20 173 13 41 20 92 20 143 0 50 6 94 16 117 9 21 18 82 21
142 3 58 11 116 18 130 7 14 16 77 20 140 4 63 13 126 20 140 7 14 15 73 18
131 2 58 11 117 18 130 7 13 16 76 20 139 4 68 14 130 23 152 10 25 16 67 16
122 0 62 6 101 21 141 20 54 24 57 167 155 l147 99 81 1 c55 0 102 -7 144 -20z
m1652 -234 c25 -10 66 -16 121 -16 57 0 100 -6 140 -20 40 -14 82 -20 145 -20
80 0 92 -3 133 -28 40 -26 237 -245 249 -278 3 -7 2 -73 -2 -146 -5 -96 -12
-147 -26 -183 l-20 -50 -77 -3 c-49 -2 -92 2 -119 12 -22 8 -81 17 -130 20
-120 7 -148 32 -111 102 42 81 -3 110 -195 125 -63 5 -129 16 -147 24 -64 30
-91 15 -100 -57 -3 -24 -11 -61 -18 -83 -8 -22 -16 -85 -19 -140 -3 -65 -10
-111 -21 -132 -44 -86 18 -132 189 -140 56 -2 118 -11 139 -19 21 -8 85 -17
142 -21 70 -4 112 -11 128 -22 25 -17 153 -159 225 -250 47 -59 53 -93 27
-155 -8 -20 -18 -84 -21 -143 -4 -60 -12 -119 -19 -133 -7 -14 -16 -74 -20
-134 -4 -60 -13 -124 -21 -142 -8 -18 -14 -66 -14 -106 -1 -93 -12 -144 -42
-175 -24 -25 -224 -163 -237 -163 -5 0 -16 -9 -26 -20 -16 -17 -31 -20 -110
-20 -65 0 -111 6 -155 20 -42 13 -90 20 -145 20 -53 0 -96 6 -121 16 -24 10
-81 18 -144 22 -71 3 -116 10 -139 22 -19 10 -88 78 -153 151 l-118 134 0 85
c0 60 6 103 20 143 11 31 20 78 20 104 0 74 6 78 89 65 38 -7 100 -12 138 -12
40 -1 78 -7 93 -15 14 -8 42 -14 63 -15 70 0 77 -10 77 -105 l0 -85 38 -16
c21 -10 87 -21 152 -26 63 -6 131 -17 151 -25 20 -8 45 -12 56 -9 34 11 57 82
63 201 4 61 12 120 19 133 20 37 27 158 10 178 -25 30 -79 45 -188 51 -58 3
-117 11 -131 18 -14 7 -76 16 -137 20 -92 6 -118 11 -141 29 -32 23 -223 240
-240 273 -14 25 3 271 23 328 8 22 16 85 19 140 2 58 11 115 20 137 10 24 16
67 16 116 0 52 7 101 20 142 11 34 20 68 20 74 0 19 105 106 128 106 5 0 17 9
27 20 10 11 22 20 26 20 5 0 35 18 66 41 l58 40 110 -4 c71 -3 123 -10 147
-21z m7001 -3374 c8 -7 58 -16 111 -21 52 -4 102 -14 110 -20 9 -7 44 -15 78
-18 35 -4 72 -12 83 -19 11 -7 45 -16 75 -20 30 -4 64 -13 75 -20 11 -6 40
-15 65 -19 25 -4 56 -13 70 -20 14 -7 46 -15 71 -19 26 -4 55 -13 65 -21 11
-8 35 -15 54 -15 37 0 107 -31 126 -56 6 -7 13 -11 16 -8 4 3 9 1 12 -4 4 -6
-4 -9 -18 -8 -14 2 -27 -3 -30 -10 -3 -7 -5 -117 -5 -244 0 -127 -3 -235 -6
-241 -4 -5 -7 -68 -7 -139 0 -72 -4 -133 -8 -135 -4 -3 -4 -23 0 -45 4 -24 4
-40 -3 -40 -5 0 -7 -11 -5 -25 3 -13 2 -22 -3 -20 -7 5 -18 -150 -18 -253 0
-23 -3 -47 -7 -54 -4 -6 -9 -38 -11 -72 -2 -33 -8 -85 -13 -115 -6 -30 -10
-75 -10 -101 0 -25 -4 -50 -9 -56 -9 -9 -16 -49 -27 -164 -3 -30 -10 -59 -14
-65 -4 -5 -11 -37 -15 -70 -4 -33 -11 -64 -15 -70 -5 -5 -9 -13 -9 -17 -1 -4
-3 -13 -6 -20 -2 -7 -8 -49 -14 -93 -5 -44 -15 -81 -20 -83 -6 -2 -11 -16 -11
-30 0 -39 -19 -102 -31 -102 -6 0 -9 -8 -8 -17 3 -24 -9 -72 -26 -103 -7 -14
-16 -43 -20 -65 -4 -22 -14 -50 -22 -63 -8 -13 -12 -29 -10 -35 3 -7 -6 -31
-19 -53 -13 -23 -21 -44 -18 -47 4 -3 -3 -19 -15 -35 -12 -17 -21 -39 -21 -49
0 -11 -7 -28 -15 -39 -8 -10 -15 -26 -15 -35 0 -9 -9 -28 -21 -43 -11 -14 -38
-61 -60 -103 -22 -43 -49 -87 -62 -98 -12 -11 -29 -33 -37 -49 -17 -33 -70
-96 -113 -135 -16 -14 -38 -36 -50 -48 -11 -13 -27 -23 -34 -23 -7 0 -13 -4
-13 -9 0 -15 -82 -66 -131 -83 -124 -42 -148 -47 -251 -47 -72 -1 -117 4 -141
14 -20 8 -42 12 -50 9 -8 -3 -34 5 -58 18 -24 12 -49 23 -56 24 -23 4 -143 67
-167 88 -13 12 -29 22 -35 24 -19 4 -118 79 -133 100 -7 11 -23 22 -36 26 -13
4 -112 96 -220 204 -212 212 -305 312 -331 358 -9 15 -25 36 -37 46 -22 18
-156 181 -195 238 -13 19 -41 56 -61 81 -21 26 -38 51 -38 55 -1 5 -14 24 -30
43 -16 19 -26 39 -23 44 3 6 1 7 -4 4 -16 -10 -88 104 -75 119 4 4 2 4 -5 1
-11 -7 -61 55 -99 123 -10 19 -21 37 -24 40 -33 31 -112 152 -126 192 -3 10
-15 20 -26 24 -11 3 -17 9 -13 12 3 3 -9 14 -27 23 l-32 17 3 123 c2 84 7 131
16 145 8 12 17 46 21 75 4 30 13 63 20 74 6 11 15 36 19 55 4 19 13 44 20 55
7 11 16 34 20 52 3 17 13 37 21 44 8 6 14 19 15 28 0 9 13 39 29 66 16 28 37
64 46 80 101 182 350 467 539 616 89 70 233 165 308 204 32 17 68 36 80 42 12
7 29 13 38 13 9 0 22 6 28 14 7 8 28 17 48 21 20 4 46 13 57 21 11 8 31 14 44
14 13 0 44 9 70 19 26 11 73 22 105 25 32 2 64 9 70 14 22 18 60 20 368 18
234 -1 310 -4 322 -14z m-17109 -6676 c61 -30 134 -64 161 -75 28 -12 68 -31
90 -42 22 -10 46 -19 54 -19 7 0 30 -8 50 -19 20 -10 50 -23 66 -29 17 -5 46
-16 65 -22 19 -7 53 -21 76 -31 23 -11 52 -19 65 -19 13 0 32 -7 42 -15 11 -7
37 -17 60 -21 23 -3 51 -12 62 -19 11 -7 39 -16 62 -20 23 -3 44 -12 46 -19 3
-8 30 -15 65 -19 34 -3 71 -12 84 -21 12 -9 37 -16 56 -16 18 0 50 -9 72 -20
22 -11 56 -20 77 -20 21 0 49 -7 61 -16 12 -8 48 -18 80 -21 31 -3 66 -12 77
-19 11 -7 49 -16 85 -19 36 -4 74 -13 85 -20 11 -6 53 -15 94 -19 41 -4 83
-13 95 -21 12 -7 58 -15 103 -18 46 -4 96 -13 112 -22 19 -9 57 -15 101 -15
43 0 85 -6 108 -16 23 -10 84 -19 157 -23 67 -4 131 -13 144 -20 15 -8 82 -16
180 -20 90 -4 165 -12 178 -19 12 -7 42 -12 67 -12 90 0 118 -28 74 -74 -13
-12 -24 -31 -26 -42 -6 -32 -64 -144 -75 -144 -6 0 -8 -3 -5 -6 4 -3 -9 -32
-27 -64 -18 -33 -36 -68 -40 -79 -3 -10 -12 -25 -20 -31 -8 -7 -15 -21 -15
-30 0 -10 -11 -27 -25 -38 -14 -11 -25 -24 -24 -29 3 -17 -2 -30 -18 -49 -10
-10 -25 -32 -33 -49 -8 -16 -18 -32 -22 -35 -4 -3 -16 -26 -27 -50 -12 -25
-32 -63 -46 -85 -14 -22 -29 -49 -34 -60 -5 -11 -18 -29 -30 -39 -11 -11 -21
-25 -21 -33 0 -12 -50 -88 -112 -172 -15 -20 -31 -43 -35 -51 -4 -8 -27 -46
-52 -85 -25 -39 -50 -78 -56 -87 -14 -22 -91 -122 -107 -139 -7 -8 -33 -41
-58 -74 -38 -52 -79 -102 -164 -202 -10 -12 -23 -20 -28 -17 -4 3 -8 -3 -8
-13 0 -18 -240 -267 -290 -300 -14 -9 -43 -32 -64 -51 -59 -53 -218 -152 -242
-152 -12 0 -27 -7 -34 -15 -7 -9 -19 -14 -27 -11 -7 3 -13 1 -13 -5 0 -6 -7
-8 -16 -5 -8 3 -22 0 -30 -8 -18 -19 -129 -30 -212 -23 -35 4 -72 2 -82 -3
-13 -7 -24 -2 -45 20 -15 16 -33 26 -40 24 -6 -3 -18 2 -25 11 -7 8 -18 15
-25 15 -24 0 -141 118 -213 215 -84 114 -223 381 -217 416 2 12 2 19 -2 16
-11 -11 -32 27 -33 57 0 17 -10 40 -22 53 -12 13 -16 23 -10 23 8 0 5 11 -6
33 -10 17 -24 57 -31 87 -8 30 -17 60 -21 65 -4 6 -13 33 -20 60 -7 28 -16 55
-20 60 -9 12 -25 95 -21 113 1 6 -3 12 -10 12 -6 0 -9 7 -6 15 4 8 2 17 -3 20
-5 3 -12 31 -16 63 -4 31 -10 59 -14 62 -4 3 -10 21 -13 40 -3 19 -10 50 -16
68 -5 17 -7 32 -3 32 3 0 1 5 -6 12 -7 7 -12 29 -12 49 0 21 -4 40 -8 43 -4 2
-9 21 -10 42 -2 20 -6 42 -10 48 -3 6 -9 31 -13 56 -4 25 -10 57 -13 71 -3 14
-7 42 -8 62 -2 20 -6 37 -10 37 -5 0 -7 3 -6 8 4 18 -14 169 -23 188 -6 11 -9
24 -8 30 1 5 -1 16 -4 24 -10 25 -19 93 -18 139 1 24 -3 49 -8 55 -4 6 -9 25
-10 41 -1 17 -4 50 -7 75 -3 25 -8 74 -11 110 -3 36 -9 70 -14 76 -5 6 -9 33
-8 60 1 27 0 51 -1 54 -7 18 -11 56 -17 130 -4 67 -10 90 -26 108 -18 19 -19
25 -7 32 8 5 18 6 22 4 4 -3 8 0 8 5 0 17 5 15 124 -43z m6780 -1501 c11 -8
32 -15 47 -15 15 0 35 -7 44 -16 8 -9 43 -19 78 -24 35 -4 77 -15 95 -24 17
-9 48 -16 69 -16 21 0 48 -7 60 -15 13 -9 51 -20 85 -24 35 -5 81 -16 103 -25
22 -8 63 -15 90 -16 28 0 59 -6 70 -14 11 -8 56 -17 100 -21 44 -4 91 -13 105
-20 14 -7 68 -16 120 -20 52 -4 106 -13 120 -20 14 -7 73 -15 131 -18 60 -2
116 -10 130 -18 15 -8 78 -16 169 -19 94 -4 154 -11 170 -20 18 -10 85 -16
235 -20 152 -4 217 -9 235 -20 20 -11 124 -14 545 -18 495 -4 522 -5 563 -24
45 -21 51 -32 27 -57 -19 -20 -83 -115 -110 -163 -33 -60 -126 -209 -162 -259
-18 -26 -33 -51 -33 -57 0 -6 -10 -19 -22 -29 -13 -10 -28 -28 -35 -38 -6 -11
-17 -19 -25 -17 -7 2 -10 0 -6 -3 4 -4 3 -16 -3 -27 -21 -40 -131 -188 -139
-188 -5 0 -11 -9 -15 -20 -7 -21 -83 -119 -125 -161 -15 -14 -30 -33 -33 -43
-4 -9 -11 -16 -17 -16 -5 0 -10 -6 -10 -13 0 -8 -11 -20 -25 -27 -13 -7 -22
-17 -19 -22 5 -7 -64 -91 -156 -188 -19 -21 -48 -52 -63 -69 -15 -17 -32 -29
-37 -26 -6 4 -10 -3 -10 -13 0 -23 -203 -222 -226 -222 -8 0 -13 -4 -12 -9 2
-4 -17 -28 -42 -53 -46 -45 -237 -208 -244 -208 -3 0 -18 -12 -34 -27 -35 -34
-116 -93 -126 -93 -4 0 -19 -12 -34 -26 -15 -14 -45 -35 -67 -46 -22 -11 -47
-27 -56 -35 -16 -13 -96 -56 -209 -112 -25 -13 -53 -27 -62 -32 -10 -5 -25 -9
-34 -9 -9 0 -28 -8 -42 -18 -34 -24 -72 -34 -72 -19 0 8 -4 7 -12 -1 -7 -7
-25 -12 -40 -12 -15 0 -28 -4 -28 -9 0 -8 -184 -28 -205 -22 -5 2 -28 4 -50 5
-22 2 -50 8 -63 15 -13 7 -32 14 -42 16 -81 16 -237 165 -321 306 -30 51 -53
99 -51 107 2 7 -4 22 -13 32 -9 10 -14 24 -10 30 3 6 1 9 -6 8 -7 -2 -15 11
-19 29 -4 18 -12 39 -18 46 -6 7 -12 29 -14 49 -1 20 -5 35 -9 32 -8 -5 -29
50 -29 76 0 9 -8 25 -19 34 -25 22 -39 82 -45 183 -2 45 -7 86 -10 91 -7 11
-15 52 -26 132 -9 63 -12 76 -25 150 -14 74 -24 167 -24 228 -1 37 -5 62 -12
62 -6 0 -10 12 -8 28 1 15 -1 34 -5 43 -4 9 -5 36 -3 60 2 24 -1 55 -6 69 -5
14 -8 78 -8 143 0 76 -4 117 -11 117 -7 0 -7 5 1 14 8 9 8 16 2 20 -6 4 -10
32 -9 64 0 31 -2 64 -5 72 -7 19 -5 110 3 110 3 0 0 57 -7 128 -6 70 -12 161
-12 203 -1 43 -6 80 -13 87 -8 8 -8 15 2 27 16 19 59 19 84 0z"/>
<path d="M13690 29687 c0 -5 -5 -5 -10 -2 -6 4 -9 3 -8 -2 3 -10 -19 -52 -42
-78 -20 -23 -31 -81 -23 -128 6 -38 76 -122 110 -132 15 -4 31 3 56 25 19 16
40 30 46 30 6 0 12 7 12 15 3 35 19 75 29 75 5 0 5 12 1 28 -4 15 -6 32 -4 39
7 19 -44 109 -71 126 -25 17 -96 20 -96 4z"/>
<path d="M14570 27261 c0 -7 -4 -10 -9 -7 -10 7 -71 -25 -71 -36 0 -5 -9 -17
-20 -28 -12 -12 -18 -25 -15 -30 3 -5 -2 -24 -11 -42 -9 -18 -17 -55 -17 -83
0 -53 22 -145 35 -145 4 0 19 -11 34 -25 19 -18 34 -23 48 -19 12 3 25 7 30 8
12 1 56 51 56 61 0 4 11 18 24 30 25 24 30 49 27 160 -2 42 -8 66 -20 80 -10
11 -21 28 -24 38 -4 9 -12 17 -18 17 -7 0 -21 7 -31 17 -12 10 -18 12 -18 4z"/>
<path d="M12230 26105 c-14 -7 -45 -22 -70 -33 -25 -11 -63 -28 -85 -38 -22
-10 -52 -19 -66 -20 -15 -1 -36 -11 -48 -23 -11 -11 -27 -21 -33 -21 -7 0 -31
-9 -53 -19 -22 -11 -62 -30 -90 -41 -27 -12 -66 -29 -85 -37 -60 -27 -118 -52
-162 -72 -24 -10 -63 -28 -88 -40 -25 -11 -49 -21 -55 -21 -5 0 -28 -9 -50
-19 -22 -11 -61 -29 -87 -40 -27 -12 -69 -30 -95 -42 -27 -11 -64 -28 -83 -36
-106 -47 -128 -57 -162 -74 -20 -11 -44 -19 -52 -19 -8 0 -33 -21 -55 -47 -32
-38 -41 -56 -41 -86 0 -40 25 -87 64 -119 31 -26 150 -25 194 2 18 11 38 20
45 20 6 0 31 9 54 20 60 29 152 70 258 115 17 6 50 21 75 33 68 30 76 32 97
17 17 -13 13 -19 -58 -92 -42 -43 -168 -172 -280 -286 -124 -127 -213 -227
-228 -255 -23 -45 -23 -45 -5 -99 22 -64 71 -103 131 -103 33 0 148 51 313
139 19 10 54 28 80 41 11 6 30 15 43 22 12 6 103 53 203 103 100 51 187 96
195 100 7 5 24 10 38 11 14 2 28 10 33 18 4 8 72 46 151 86 78 39 149 74 157
79 31 16 66 34 85 44 11 6 27 14 35 19 8 4 26 14 40 20 71 35 120 95 120 149
0 47 -52 119 -95 131 -33 9 -134 1 -150 -12 -29 -24 -350 -180 -370 -180 -13
0 -25 7 -29 15 -3 9 0 15 9 15 8 0 22 12 32 27 10 15 104 115 210 223 150 152
196 205 208 239 19 56 19 63 -5 114 -34 72 -124 106 -190 72z"/>
<path d="M13947 25802 c-15 -10 -39 -34 -53 -53 -33 -43 -30 -112 7 -156 13
-16 100 -85 192 -153 258 -191 322 -241 321 -251 -1 -5 -2 -14 -2 -20 -2 -14
-119 -2 -147 16 -11 7 -45 16 -75 20 -30 4 -66 13 -80 20 -14 7 -46 15 -73 18
-26 4 -61 13 -77 22 -16 8 -44 15 -62 15 -18 0 -53 9 -77 20 -24 11 -60 20
-80 20 -20 0 -49 7 -66 16 -53 29 -105 24 -153 -15 -48 -38 -72 -77 -72 -119
0 -36 43 -102 83 -128 18 -12 74 -49 125 -82 51 -34 95 -62 97 -62 2 0 41 -25
85 -55 44 -30 84 -55 89 -55 4 0 16 -9 26 -20 10 -11 21 -20 25 -20 4 0 57
-33 118 -72 61 -40 164 -107 228 -148 65 -41 160 -103 212 -137 51 -35 96 -63
98 -63 2 0 26 -15 52 -33 92 -65 138 -87 179 -87 55 0 110 41 133 100 15 41
15 49 2 85 -8 22 -22 48 -30 57 -15 19 -134 99 -355 239 -26 17 -37 30 -35 44
3 18 9 20 57 16 29 -1 72 -11 95 -22 22 -10 56 -19 74 -19 18 0 47 -7 63 -16
17 -8 53 -18 82 -21 29 -3 61 -12 72 -19 11 -6 45 -15 75 -19 30 -4 65 -13 77
-21 31 -20 55 -18 102 9 89 51 117 138 67 206 -26 35 -48 52 -326 258 -96 71
-274 203 -395 292 -121 90 -248 184 -283 210 -35 25 -93 69 -130 96 -126 94
-145 105 -193 105 -26 0 -55 -8 -72 -18z"/>
<path d="M11410 24091 c-30 -4 -68 -15 -85 -24 -16 -9 -37 -17 -45 -17 -45 0
-251 -127 -348 -215 -33 -30 -65 -55 -71 -55 -6 0 -11 -6 -11 -13 0 -8 -12
-24 -26 -38 -36 -33 -153 -182 -195 -249 -58 -90 -75 -120 -124 -220 -26 -52
-55 -112 -66 -132 -10 -20 -19 -44 -19 -52 0 -9 -9 -30 -20 -48 -11 -18 -20
-42 -20 -53 0 -12 -9 -38 -20 -60 -11 -22 -20 -51 -20 -65 0 -14 -6 -34 -14
-45 -7 -11 -17 -45 -21 -75 -4 -30 -13 -66 -20 -80 -7 -14 -15 -58 -19 -98 -3
-41 -13 -86 -21 -102 -10 -20 -15 -62 -16 -137 0 -59 -5 -144 -10 -188 -20
-158 -21 -196 -10 -240 6 -25 14 -116 18 -203 4 -103 11 -166 20 -185 7 -15
17 -58 20 -95 3 -37 11 -78 18 -92 7 -14 16 -45 20 -70 4 -25 13 -54 20 -65 7
-11 16 -39 20 -62 3 -23 13 -47 21 -54 8 -6 14 -20 14 -31 0 -10 10 -38 22
-61 12 -23 25 -50 30 -60 120 -249 316 -464 513 -564 11 -5 39 -19 62 -31 23
-12 55 -22 70 -22 16 0 40 -8 53 -17 21 -16 49 -18 195 -18 146 0 174 2 195
18 13 9 37 17 52 17 57 0 248 101 354 187 23 18 45 33 50 33 23 0 271 298 324
390 11 19 29 49 40 65 11 17 25 40 31 52 7 12 19 25 27 28 20 7 52 -23 52 -49
0 -12 8 -37 19 -56 10 -19 21 -49 25 -67 4 -17 14 -37 22 -44 8 -6 14 -19 14
-29 0 -9 9 -29 20 -43 11 -14 20 -29 20 -34 0 -20 131 -208 193 -277 106 -118
274 -245 358 -271 13 -4 33 -14 44 -21 11 -8 31 -14 45 -14 14 0 45 -9 69 -20
37 -17 65 -20 206 -20 141 0 169 3 206 20 24 11 54 20 67 20 12 0 39 9 59 20
21 11 43 20 49 20 19 0 153 79 229 136 136 101 300 279 390 423 6 9 26 41 45
71 59 92 120 208 120 228 0 5 7 15 15 22 8 7 15 21 15 31 0 10 9 33 20 51 11
18 20 42 20 53 0 11 9 34 20 50 11 17 20 41 20 55 0 14 9 43 20 65 11 22 20
53 20 70 0 17 6 40 14 51 8 11 18 49 22 85 4 35 12 75 19 89 7 14 16 70 20
125 4 55 13 112 21 127 21 40 20 614 -1 664 -8 19 -17 76 -21 127 -4 51 -13
101 -19 112 -7 11 -16 45 -20 76 -3 31 -13 65 -20 75 -8 11 -15 33 -15 49 0
17 -9 47 -20 68 -11 20 -20 44 -20 52 0 9 -9 33 -19 53 -10 20 -40 80 -66 132
-67 136 -146 250 -242 350 -46 48 -83 93 -83 99 0 6 -9 11 -19 11 -11 0 -23 5
-26 10 -6 9 -49 40 -107 75 -56 34 -144 75 -162 75 -12 0 -33 8 -46 18 -22 15
-52 17 -250 17 -198 0 -228 -2 -250 -17 -13 -10 -35 -18 -48 -18 -14 0 -41 -8
-61 -19 -20 -10 -47 -24 -61 -30 -14 -6 -43 -22 -65 -36 -22 -13 -49 -28 -60
-33 -12 -6 -27 -17 -34 -26 -7 -9 -19 -16 -25 -16 -19 0 -211 -185 -279 -268
-70 -86 -207 -290 -207 -308 0 -18 -38 -28 -55 -14 -8 7 -17 27 -21 46 -3 19
-15 51 -25 71 -11 21 -19 42 -19 48 0 30 -133 262 -197 345 -24 30 -43 61 -43
68 0 6 -4 12 -10 12 -5 0 -28 20 -51 45 -22 24 -75 70 -118 102 -42 32 -84 65
-94 75 -10 10 -28 18 -40 18 -12 0 -31 7 -41 15 -11 8 -27 15 -36 15 -8 0 -33
9 -54 21 -35 18 -60 21 -210 24 -94 2 -196 0 -226 -4z m330 -174 c14 -9 37
-17 52 -17 29 0 89 -29 163 -79 25 -17 49 -31 52 -31 4 0 43 -37 87 -82 82
-84 170 -207 220 -308 15 -30 36 -72 47 -92 10 -20 19 -44 19 -53 0 -8 9 -32
20 -52 11 -21 20 -49 20 -63 0 -14 7 -33 15 -44 7 -10 17 -44 21 -75 4 -31 13
-65 20 -76 18 -26 18 -119 0 -134 -8 -6 -17 -33 -21 -58 -4 -25 -13 -56 -20
-67 -7 -12 -15 -43 -19 -69 -3 -27 -13 -58 -21 -70 -8 -12 -15 -44 -15 -72 -1
-27 -8 -68 -17 -90 -9 -24 -18 -93 -22 -170 -5 -76 -13 -141 -21 -155 -20 -36
-19 -395 0 -430 9 -16 15 -70 18 -149 4 -111 2 -129 -16 -165 -11 -23 -34 -70
-51 -106 -17 -36 -47 -92 -66 -125 -19 -33 -42 -73 -51 -90 -65 -116 -270
-337 -384 -416 -57 -39 -91 -57 -215 -115 -32 -15 -165 -36 -230 -36 -64 0
-195 21 -224 35 -152 77 -214 121 -296 208 -59 63 -135 161 -158 204 -41 77
-77 153 -77 162 0 6 -7 16 -15 23 -8 7 -15 22 -15 34 0 11 -9 35 -20 51 -11
17 -20 42 -20 58 0 15 -9 44 -20 64 -11 21 -20 54 -20 73 0 19 -7 49 -16 65
-9 17 -18 66 -21 115 -3 48 -12 98 -22 115 -23 45 -23 625 1 670 9 18 17 67
21 120 3 54 11 102 21 120 9 17 16 50 16 75 0 25 9 63 20 85 11 22 19 52 20
68 0 15 9 44 20 64 11 21 20 50 20 64 0 15 6 32 14 38 8 7 17 30 21 51 4 21
12 44 20 50 7 6 16 26 19 44 4 19 13 39 21 46 7 6 17 24 20 40 3 16 13 34 21
41 8 6 14 16 14 21 0 18 84 152 151 243 37 50 109 131 161 180 108 104 123
116 208 165 104 60 148 80 177 80 16 0 38 6 49 14 30 21 59 25 175 22 80 -2
111 -6 129 -19z m2136 -111 c12 -8 44 -18 72 -22 29 -3 52 -10 52 -15 0 -4 16
-13 36 -19 51 -17 169 -99 240 -167 92 -88 233 -289 250 -358 3 -13 12 -29 20
-36 7 -6 16 -26 20 -45 3 -18 12 -38 20 -45 8 -6 14 -21 14 -33 0 -12 9 -39
20 -61 11 -22 20 -53 20 -70 0 -17 9 -47 20 -68 11 -20 20 -56 20 -80 0 -23 8
-67 19 -97 38 -112 36 -843 -3 -915 -9 -18 -16 -54 -16 -88 0 -38 -7 -70 -20
-94 -11 -21 -20 -56 -20 -78 0 -22 -6 -50 -14 -61 -8 -11 -17 -38 -21 -60 -4
-21 -13 -48 -20 -60 -8 -12 -17 -37 -20 -57 -4 -20 -13 -41 -21 -48 -8 -6 -14
-19 -14 -28 0 -21 -118 -254 -166 -328 -108 -165 -227 -300 -342 -391 -88 -68
-111 -83 -197 -125 -96 -48 -154 -67 -200 -67 -25 0 -62 -7 -82 -15 -44 -19
-90 -19 -123 0 -14 8 -47 14 -73 15 -43 0 -117 23 -172 53 -11 6 -29 15 -40
21 -104 56 -245 188 -326 306 -25 36 -49 72 -53 80 -4 8 -18 33 -31 55 -14 22
-29 51 -35 65 -5 14 -17 37 -25 52 -8 14 -15 32 -15 40 0 7 -9 30 -20 51 -11
20 -20 46 -20 57 0 11 -9 37 -20 57 -11 21 -20 54 -20 73 0 20 -7 46 -16 58
-9 14 -18 54 -21 100 -3 42 -13 91 -22 107 -14 26 -16 78 -16 386 0 293 3 359
14 373 9 10 17 54 21 111 5 60 13 101 24 116 9 13 16 43 16 67 0 23 9 60 20
82 11 22 20 52 20 67 0 16 6 37 14 48 7 11 17 36 21 55 4 19 13 45 21 57 8 12
14 27 14 33 0 11 43 111 60 140 5 8 23 42 40 75 93 183 200 326 342 460 81 77
213 175 235 175 6 0 16 6 22 14 7 8 27 18 44 21 18 4 39 13 47 20 8 7 37 16
65 20 27 4 58 13 69 21 29 20 243 20 272 0z"/>
<path d="M11400 22712 c-78 -15 -195 -127 -241 -232 -6 -14 -20 -43 -30 -66
-11 -23 -19 -54 -19 -70 0 -16 -8 -41 -17 -54 -15 -21 -18 -49 -18 -185 0
-136 3 -164 18 -185 9 -13 17 -36 17 -50 0 -31 41 -111 86 -167 45 -55 134
-103 191 -103 90 0 235 110 293 222 12 24 28 54 36 68 7 14 14 34 14 45 0 11
8 32 18 45 15 22 17 52 17 246 0 197 -2 224 -17 241 -10 11 -18 29 -18 40 0
11 -9 32 -20 46 -11 14 -20 29 -20 34 -1 13 -62 78 -95 100 -33 23 -136 36
-195 25z"/>
<path d="M13106 22606 c-76 -47 -147 -130 -209 -243 -9 -17 -17 -37 -17 -45 0
-7 -8 -29 -18 -48 -11 -19 -22 -66 -25 -104 -4 -38 -11 -74 -17 -80 -15 -15
-12 -185 5 -231 8 -22 14 -57 15 -78 0 -22 6 -51 14 -65 8 -15 25 -49 37 -77
51 -110 156 -185 261 -185 32 0 62 6 74 15 10 8 27 15 37 15 29 0 169 149 198
210 58 120 69 149 69 181 0 19 8 48 17 64 25 44 25 306 0 350 -9 17 -17 44
-17 60 0 17 -9 44 -20 60 -11 17 -20 36 -20 44 0 22 -77 111 -127 147 -46 32
-52 34 -133 34 -72 -1 -91 -4 -124 -24z"/>
<path d="M9982 19971 c-12 -21 -22 -50 -22 -63 0 -27 -40 -87 -84 -128 -25
-23 -35 -25 -119 -25 -87 0 -96 2 -167 39 -41 21 -87 47 -102 58 -15 10 -43
22 -62 25 -28 4 -35 2 -41 -15 -3 -12 -1 -30 4 -40 17 -32 127 -118 191 -149
14 -7 32 -17 40 -22 25 -15 153 -51 180 -51 19 0 61 -36 175 -151 150 -151
348 -322 480 -414 118 -83 184 -125 193 -125 5 0 14 -6 20 -13 6 -6 39 -27 74
-45 35 -18 70 -37 78 -42 14 -8 148 -71 235 -110 22 -10 61 -27 86 -39 25 -12
55 -21 65 -21 10 0 33 -9 49 -20 17 -11 41 -20 55 -20 14 0 34 -6 45 -14 11
-7 40 -17 65 -21 25 -4 54 -13 65 -19 11 -7 44 -16 74 -20 29 -4 63 -13 75
-20 11 -8 48 -16 82 -19 33 -3 75 -12 92 -21 19 -10 56 -16 92 -16 41 0 66 -5
76 -15 18 -17 44 -20 44 -5 0 7 9 6 23 -2 17 -10 133 -13 522 -13 451 0 505 2
548 18 28 10 76 17 115 17 41 0 79 6 97 16 16 8 59 18 95 21 36 3 74 11 85 18
11 7 45 16 75 20 30 4 64 13 75 19 11 7 42 16 68 19 27 4 58 14 70 22 12 8 33
15 47 15 14 0 43 9 65 20 22 11 48 20 59 20 10 0 37 8 60 19 23 10 56 23 74
30 71 25 99 35 138 53 59 26 91 23 138 -15 23 -19 67 -46 98 -60 49 -23 70
-27 149 -27 73 0 99 4 133 21 22 12 48 25 56 29 8 4 15 20 15 36 l0 29 -140 5
c-130 5 -143 7 -180 31 -46 30 -83 70 -108 116 -22 40 -24 160 -2 189 17 22
20 110 4 119 -54 34 -132 -123 -133 -266 -1 -89 -11 -105 -69 -114 -23 -4 -52
-13 -64 -21 -12 -8 -37 -14 -55 -14 -18 0 -53 -9 -77 -20 -24 -11 -60 -20 -80
-20 -20 -1 -54 -9 -76 -20 -22 -11 -62 -19 -88 -20 -26 0 -62 -7 -80 -17 -17
-9 -63 -18 -102 -21 -38 -2 -82 -11 -96 -18 -15 -7 -71 -16 -125 -20 -55 -4
-110 -12 -124 -19 -14 -8 -91 -16 -180 -20 -90 -5 -168 -13 -187 -21 -48 -20
-547 -20 -600 0 -21 8 -83 17 -137 20 -55 4 -106 12 -113 17 -7 6 -24 8 -39 5
-14 -4 -31 -3 -37 2 -7 5 -47 12 -90 16 -43 3 -91 13 -107 21 -16 8 -46 15
-67 15 -21 0 -58 9 -82 20 -24 11 -54 20 -67 20 -14 0 -42 9 -64 20 -22 11
-48 20 -60 20 -11 0 -37 9 -57 20 -21 11 -47 20 -58 20 -12 0 -30 7 -41 15
-10 8 -25 15 -33 15 -8 0 -32 9 -55 19 -107 49 -338 165 -401 201 -38 22 -77
43 -85 47 -8 3 -41 24 -73 45 -32 21 -60 38 -62 38 -3 0 -54 34 -115 76 -185
126 -437 323 -474 372 -20 26 -22 20 54 117 22 28 40 61 40 75 0 14 7 38 15
54 20 38 18 86 -4 114 -27 32 -44 28 -69 -17z"/>
<path d="M1773 14261 c-27 -20 -57 -43 -66 -53 -9 -9 -20 -18 -25 -20 -4 -1
-21 -29 -36 -60 -16 -32 -33 -58 -38 -58 -4 0 -8 -20 -8 -44 0 -35 4 -46 19
-51 11 -3 23 -15 26 -25 7 -23 44 -35 75 -25 50 16 121 73 189 153 42 50 51
175 13 189 -10 4 -21 12 -25 19 -14 24 -72 12 -124 -25z"/>
<path d="M22459 10889 c-43 -52 -67 -119 -68 -187 -2 -130 138 -289 187 -212
7 11 18 20 25 20 7 0 18 14 25 30 8 17 18 28 22 25 5 -3 7 4 5 16 -2 12 0 30
6 41 14 26 15 171 1 176 -6 2 -9 9 -6 16 3 7 -4 21 -16 31 -11 10 -20 22 -20
27 0 22 -56 57 -91 58 -31 0 -42 -7 -70 -41z"/>
<path d="M16469 29063 c-5 -28 -3 -110 2 -107 7 4 9 114 3 114 -2 0 -5 -3 -5
-7z"/>
<path d="M8120 19289 c0 -5 5 -7 10 -4 6 3 10 8 10 11 0 2 -4 4 -10 4 -5 0
-10 -5 -10 -11z"/>
</g>
</svg>
